<?xml version="1.0" encoding="UTF-8" standalone="no"?> <svg xmlns="http://www.w3.org/2000/svg" viewBox="0 0 64 64"><defs><style>.cls-1{fill:#35353d;}</style></defs><title>Asset 39</title><g id="Layer_2" data-name="Layer 2"><g id="Layer_1-2" data-name="Layer 1"><polygon class="cls-1" points="58.67 58.67 42.67 58.67 42.67 64 64 64 64 42.67 58.67 42.67 58.67 58.67"/><polygon class="cls-1" points="5.33 5.33 21.33 5.33 21.33 0 0 0 0 21.33 5.33 21.33 5.33 5.33"/><polygon class="cls-1" points="42.67 0 42.67 5.33 58.67 5.33 58.67 21.33 64 21.33 64 0 42.67 0"/><polygon class="cls-1" points="5.33 42.67 0 42.67 0 64 21.33 64 21.33 58.67 5.33 58.67 5.33 42.67"/><path class="cls-1" d="M32,21.33A10.67,10.67,0,1,0,42.67,32,10.67,10.67,0,0,0,32,21.33Zm0,16A5.33,5.33,0,1,1,37.33,32,5.33,5.33,0,0,1,32,37.33Z"/></g></g></svg>